<?xml version="1.0" standalone="no"?><!DOCTYPE svg PUBLIC "-//W3C//DTD SVG 1.1//EN" "http://www.w3.org/Graphics/SVG/1.1/DTD/svg11.dtd"><svg t="1581464988290" class="icon" viewBox="0 0 1024 1024" version="1.1" xmlns="http://www.w3.org/2000/svg" p-id="5152" xmlns:xlink="http://www.w3.org/1999/xlink" width="200" height="200"><defs><style type="text/css"></style></defs><path d="M704 96c33.728 0 61.376 26.016 63.84 59.04l0.16 4.768V253.12l128 0.032v63.808h-64v515.328a95.84 95.84 0 0 1-90.368 95.552L736 928H288c-53.024 0-96-42.848-96-95.68V316.928H128V253.152h128V159.776c0-33.632 26.112-61.184 59.2-63.648L320 96h384z m64 220.96H256v515.328c0 16.384 12.352 29.856 28.256 31.68l3.744 0.224h448c17.664 0 32-14.272 32-31.904V316.96z m-320 95.68v319.04h-64v-319.04h64z m192 0v319.04h-64v-319.04h64z m64-252.832H320V253.12h384V159.808z" fill="#000000" p-id="5153"></path></svg>