<svg width="159" height="23" viewBox="0 0 159 23" fill="none" xmlns="http://www.w3.org/2000/svg">
<path d="M3.89453 22.4375C3.9401 21.7721 3.98568 21.1296 4.03125 20.5098C4.07682 19.89 4.11784 19.2884 4.1543 18.7051L4.64648 12.252C4.70117 11.7598 4.74674 11.3132 4.7832 10.9121C4.81966 10.502 4.84701 10.1055 4.86523 9.72266C4.89258 9.33073 4.91536 8.9388 4.93359 8.54688C4.96094 8.14583 4.98828 7.70378 5.01562 7.2207C4.71484 7.21159 4.39583 7.20703 4.05859 7.20703C3.73047 7.20703 3.38411 7.20703 3.01953 7.20703H0.380859C0.280599 7.20703 0.216797 7.17057 0.189453 7.09766C0.171224 7.01562 0.162109 6.94271 0.162109 6.87891V6.7832L1.66602 2.83203L1.65234 2.77734C1.65234 2.73177 1.67969 2.69531 1.73438 2.66797C1.79818 2.63151 1.9349 2.60417 2.14453 2.58594C3.40234 2.51302 4.61914 2.44466 5.79492 2.38086C6.97982 2.30794 8.14648 2.24414 9.29492 2.18945C10.4525 2.13477 11.6055 2.08008 12.7539 2.02539C13.9115 1.9707 15.1009 1.92057 16.3223 1.875C16.4316 1.875 16.5456 1.88867 16.6641 1.91602C16.7917 1.94336 16.8555 2.04362 16.8555 2.2168C16.8555 2.23503 16.8509 2.25326 16.8418 2.27148C16.8327 2.28971 16.8281 2.30794 16.8281 2.32617C16.6823 2.69987 16.5456 3.05534 16.418 3.39258C16.2995 3.72982 16.181 4.0625 16.0625 4.39062C15.944 4.71875 15.821 5.05143 15.6934 5.38867C15.5749 5.72591 15.4427 6.08138 15.2969 6.45508C15.2878 6.46419 15.2695 6.50977 15.2422 6.5918C15.2148 6.66471 15.1738 6.7513 15.1191 6.85156C15.0645 6.94271 14.9915 7.0293 14.9004 7.11133C14.8092 7.19336 14.6953 7.23893 14.5586 7.24805C14.513 7.23893 14.4674 7.23438 14.4219 7.23438C14.3763 7.23438 14.3262 7.23438 14.2715 7.23438H10.6211C10.5755 7.69922 10.5299 8.19141 10.4844 8.71094C10.4479 9.23047 10.4023 9.73633 10.3477 10.2285L9.34961 20.9062C9.34049 20.9883 9.32227 21.0703 9.29492 21.1523C9.27669 21.2344 9.21745 21.2936 9.11719 21.3301L5.24805 22.7246C5.14779 22.7611 5.01562 22.8066 4.85156 22.8613C4.6875 22.916 4.52799 22.9434 4.37305 22.9434C4.24544 22.9434 4.13151 22.9115 4.03125 22.8477C3.9401 22.7839 3.89453 22.6654 3.89453 22.4922V22.4375ZM28.8457 10.6523C28.8092 10.7799 28.7409 10.9622 28.6406 11.1992C28.5404 11.4271 28.4219 11.6868 28.2852 11.9785C28.1576 12.2702 28.0163 12.5846 27.8613 12.9219C27.7155 13.25 27.5697 13.5827 27.4238 13.9199C27.3691 14.0475 27.319 14.1432 27.2734 14.207C27.2279 14.2617 27.1549 14.3027 27.0547 14.3301C26.9544 14.3574 26.8132 14.3757 26.6309 14.3848C26.4577 14.3848 26.2116 14.3893 25.8926 14.3984L23.9922 14.4395L23.6094 18.623H30.623V19.1562C30.6048 19.1745 30.5273 19.2975 30.3906 19.5254C30.2539 19.7441 30.0944 20.0085 29.9121 20.3184C29.7298 20.6283 29.5384 20.9427 29.3379 21.2617C29.1374 21.5716 28.9688 21.8223 28.832 22.0137C28.7409 22.1777 28.6361 22.3053 28.5176 22.3965C28.3991 22.4967 28.2669 22.5697 28.1211 22.6152C27.9844 22.6608 27.8294 22.6882 27.6562 22.6973C27.4922 22.7064 27.3099 22.7109 27.1094 22.7109C26.2891 22.7109 25.4323 22.6927 24.5391 22.6562C23.6549 22.6198 22.7708 22.5742 21.8867 22.5195C21.0026 22.4648 20.1367 22.401 19.2891 22.3281C18.4505 22.2643 17.6712 22.196 16.9512 22.123C16.8874 22.1139 16.8281 22.0775 16.7734 22.0137C16.7279 21.9499 16.7051 21.877 16.7051 21.7949C16.6686 21.7949 16.6914 21.7174 16.7734 21.5625C16.8646 21.4076 16.9876 21.207 17.1426 20.9609C17.2975 20.7148 17.4661 20.4368 17.6484 20.127C17.8398 19.8079 18.0221 19.4889 18.1953 19.1699L18.4141 16.0938C18.4505 15.5742 18.4779 15.1868 18.4961 14.9316C18.5234 14.6764 18.5371 14.5397 18.5371 14.5215C17.9902 14.5124 17.5801 14.485 17.3066 14.4395C17.0423 14.3939 16.9102 14.2936 16.9102 14.1387C16.9102 14.0658 16.974 13.929 17.1016 13.7285C17.2383 13.528 17.4023 13.3001 17.5938 13.0449C17.7852 12.7806 17.9857 12.5072 18.1953 12.2246C18.4141 11.9421 18.6055 11.6823 18.7695 11.4453L19.1113 6.79688H19.0703C18.8698 6.80599 18.6875 6.8151 18.5234 6.82422C18.3594 6.82422 18.209 6.82422 18.0723 6.82422C17.6348 6.82422 17.3203 6.80143 17.1289 6.75586C16.9466 6.70117 16.8555 6.60547 16.8555 6.46875C16.8555 6.40495 16.9102 6.27279 17.0195 6.07227C17.1289 5.87174 17.2656 5.64388 17.4297 5.38867C17.5938 5.12435 17.7669 4.85091 17.9492 4.56836C18.1315 4.27669 18.2956 4.00781 18.4414 3.76172L19.2617 2.36719H24.9766L31.7168 1.875C31.7259 1.875 31.7487 1.87956 31.7852 1.88867C31.8307 1.88867 31.8763 1.90234 31.9219 1.92969C31.9674 1.94792 32.0085 1.98438 32.0449 2.03906C32.0905 2.09375 32.1133 2.17122 32.1133 2.27148L31.9082 2.98242C31.8444 3.18294 31.7669 3.39714 31.6758 3.625C31.5846 3.84375 31.4844 4.07161 31.375 4.30859L30.7734 5.89453C30.7096 6.04948 30.6367 6.16797 30.5547 6.25C30.4727 6.33203 30.2995 6.3776 30.0352 6.38672C29.3424 6.40495 28.5677 6.43685 27.7109 6.48242C26.8633 6.51888 25.888 6.55534 24.7852 6.5918C24.7487 6.7194 24.7305 6.82422 24.7305 6.90625C24.7305 6.97917 24.7214 7.125 24.7031 7.34375L24.6348 7.97266C24.6165 8.26432 24.5892 8.57878 24.5527 8.91602C24.5163 9.25326 24.4707 9.66797 24.416 10.1602C24.8809 10.1419 25.332 10.1237 25.7695 10.1055C26.2161 10.0872 26.6217 10.0736 26.9863 10.0645C27.3509 10.0462 27.6654 10.0326 27.9297 10.0234C28.2031 10.0143 28.3945 10.0098 28.5039 10.0098C28.5768 10.0098 28.6589 10.0371 28.75 10.0918C28.8411 10.1465 28.8867 10.2513 28.8867 10.4062C28.8867 10.4792 28.873 10.5612 28.8457 10.6523ZM31.5254 21.002C31.6439 20.765 31.7669 20.5007 31.8945 20.209C32.0221 19.9082 32.1406 19.5846 32.25 19.2383L32.6191 18.3359C32.4551 18.0898 32.2865 17.8255 32.1133 17.543C31.9492 17.2513 31.7988 16.9551 31.6621 16.6543C31.5254 16.3535 31.4115 16.0527 31.3203 15.752C31.2383 15.4512 31.1973 15.1595 31.1973 14.877C31.1973 14.8587 31.2656 14.8451 31.4023 14.8359C31.5482 14.8177 31.7259 14.804 31.9355 14.7949C32.1543 14.7858 32.3867 14.7812 32.6328 14.7812C32.888 14.7721 33.1204 14.7676 33.3301 14.7676C33.5488 14.7585 33.7266 14.7539 33.8633 14.7539C34.0091 14.7448 34.082 14.7402 34.082 14.7402C34.2917 14.1934 34.4967 13.6738 34.6973 13.1816C34.8978 12.6895 35.0983 12.1927 35.2988 11.6914C35.4993 11.1901 35.6999 10.6797 35.9004 10.1602C36.1009 9.63151 36.3014 9.06641 36.502 8.46484C36.8848 7.33464 37.2585 6.34115 37.623 5.48438C37.9876 4.6276 38.3294 3.83008 38.6484 3.0918C38.6849 3.00065 38.7441 2.91862 38.8262 2.8457C38.9173 2.76367 39.013 2.69531 39.1133 2.64062C39.2135 2.58594 39.3092 2.54036 39.4004 2.50391C39.5007 2.46745 39.5781 2.4401 39.6328 2.42188C39.6693 2.41276 39.806 2.37174 40.043 2.29883C40.2891 2.22591 40.5671 2.14844 40.877 2.06641C41.1868 1.98438 41.4922 1.91146 41.793 1.84766C42.1029 1.78385 42.349 1.75195 42.5312 1.75195H42.7773C42.9232 1.75195 43.0599 1.78841 43.1875 1.86133C43.3242 1.92513 43.4154 2.05729 43.4609 2.25781C43.8984 3.37891 44.3633 4.60482 44.8555 5.93555C45.3568 7.25716 45.8444 8.71549 46.3184 10.3105C46.5736 11.1673 46.8242 11.9785 47.0703 12.7441C47.3164 13.5098 47.5625 14.2572 47.8086 14.9863C48.0547 15.7155 48.3008 16.4447 48.5469 17.1738C48.8021 17.903 49.0618 18.6549 49.3262 19.4297C49.4082 19.7578 49.4902 20.0176 49.5723 20.209C49.6634 20.4004 49.7454 20.5508 49.8184 20.6602C49.8913 20.7695 49.9505 20.8516 49.9961 20.9062C50.0417 20.9518 50.0645 21.002 50.0645 21.0566C50.0645 21.1113 49.9779 21.166 49.8047 21.2207L46.8652 22.1777C46.6465 22.2598 46.4232 22.3418 46.1953 22.4238C45.9674 22.5059 45.7533 22.5788 45.5527 22.6426C45.3522 22.7064 45.1745 22.7565 45.0195 22.793C44.8737 22.8385 44.7689 22.8613 44.7051 22.8613H44.623C44.4954 22.8613 44.4043 22.8203 44.3496 22.7383C44.2949 22.6654 44.2585 22.5924 44.2402 22.5195C44.1491 22.2188 44.0579 21.9499 43.9668 21.7129C43.8757 21.4668 43.7845 21.2253 43.6934 20.9883C43.6113 20.7422 43.5247 20.4824 43.4336 20.209C43.3516 19.9355 43.2695 19.612 43.1875 19.2383C43.1693 19.1927 43.1191 19.1562 43.0371 19.1289C42.9551 19.0924 42.8548 19.0651 42.7363 19.0469C42.627 19.0286 42.5085 19.0195 42.3809 19.0195C42.2533 19.0104 42.1348 19.0059 42.0254 19.0059C41.679 19.0059 41.3965 19.0104 41.1777 19.0195C40.9681 19.0195 40.7812 19.0241 40.6172 19.0332C40.4531 19.0332 40.2936 19.0378 40.1387 19.0469C39.9928 19.0469 39.8105 19.0469 39.5918 19.0469C39.3275 19.0469 39.054 19.0469 38.7715 19.0469C38.498 19.0378 38.2474 19.0286 38.0195 19.0195L37.2402 18.9922C37.0033 19.6484 36.7663 20.2637 36.5293 20.8379C36.2923 21.4121 36.0371 22.0046 35.7637 22.6152C35.7454 22.6882 35.6999 22.7474 35.627 22.793C35.5632 22.8385 35.4948 22.8613 35.4219 22.8613C35.3672 22.8613 35.3353 22.8568 35.3262 22.8477C34.4421 22.5286 33.6992 22.2142 33.0977 21.9043C32.4961 21.5944 31.972 21.2936 31.5254 21.002ZM40.7402 8.71094C40.5215 9.52214 40.3027 10.2604 40.084 10.9258C39.8743 11.582 39.6784 12.1654 39.4961 12.6758C39.3229 13.1862 39.1725 13.6191 39.0449 13.9746C38.9173 14.321 38.8262 14.5898 38.7715 14.7812V14.9043C38.7715 14.959 38.7669 14.9954 38.7578 15.0137H42.0391C41.9388 14.5671 41.8294 14.1159 41.7109 13.6602C41.6016 13.2044 41.4922 12.7259 41.3828 12.2246C41.2734 11.7233 41.1641 11.1855 41.0547 10.6113C40.9453 10.0371 40.8405 9.40365 40.7402 8.71094ZM69.2051 1.875C69.2507 1.86589 69.2917 1.86133 69.3281 1.86133C69.3737 1.85221 69.4147 1.84766 69.4512 1.84766C69.6152 1.84766 69.7474 1.90234 69.8477 2.01172C69.9479 2.11198 70.0163 2.29427 70.0527 2.55859C70.071 2.72266 70.0983 2.95508 70.1348 3.25586C70.1803 3.54753 70.2259 3.87565 70.2715 4.24023C70.3262 4.5957 70.3809 4.96484 70.4355 5.34766C70.4993 5.73047 70.554 6.08594 70.5996 6.41406C70.6452 6.73307 70.6862 7.01107 70.7227 7.24805C70.7591 7.47591 70.7819 7.62174 70.791 7.68555C70.9915 9.29883 71.1693 10.5931 71.3242 11.5684C71.4792 12.5436 71.5885 13.2637 71.6523 13.7285L72.5684 21.125L72.4316 21.5488C72.4134 21.6126 72.2949 21.6901 72.0762 21.7812C71.8574 21.8724 71.5931 21.9681 71.2832 22.0684C70.9733 22.1777 70.6361 22.2826 70.2715 22.3828C69.9069 22.4831 69.5697 22.5742 69.2598 22.6562C68.9499 22.7383 68.6855 22.8021 68.4668 22.8477C68.2572 22.9023 68.1478 22.9297 68.1387 22.9297C67.9199 22.9297 67.7467 22.7702 67.6191 22.4512C67.4915 22.1322 67.3867 21.7266 67.3047 21.2344C67.2227 20.7422 67.1543 20.2044 67.0996 19.6211C67.054 19.0378 66.9993 18.4772 66.9355 17.9395C66.8809 17.4928 66.8307 17.0417 66.7852 16.5859C66.7396 16.1302 66.6895 15.6654 66.6348 15.1914L66.1016 11.1992L61.0293 20.4824C60.8743 20.7012 60.7194 20.8607 60.5645 20.9609C60.4095 21.0521 60.2637 21.0977 60.127 21.0977C59.9264 21.0977 59.7669 21.0384 59.6484 20.9199C59.5391 20.8014 59.4616 20.6556 59.416 20.4824C59.2428 19.9082 59.0924 19.4251 58.9648 19.0332C58.8464 18.6322 58.7324 18.2676 58.623 17.9395C58.5228 17.6113 58.4271 17.2923 58.3359 16.9824C58.2448 16.6725 58.14 16.3171 58.0215 15.916C57.9121 15.5059 57.7845 15.0273 57.6387 14.4805C57.502 13.9245 57.3333 13.2454 57.1328 12.4434L56.709 14.4121L54.7402 22.7656C54.7129 22.875 54.599 22.9297 54.3984 22.9297C54.207 22.9297 53.9427 22.8932 53.6055 22.8203C53.2773 22.7474 52.931 22.6562 52.5664 22.5469C52.2109 22.4466 51.86 22.3372 51.5137 22.2188C51.1764 22.1094 50.9076 22.0091 50.707 21.918C50.6615 21.8997 50.6022 21.8587 50.5293 21.7949C50.4655 21.722 50.4336 21.6126 50.4336 21.4668C50.4336 21.4303 50.4473 21.3529 50.4746 21.2344C50.502 21.1159 50.5339 20.9792 50.5703 20.8242C50.6159 20.6602 50.6615 20.4961 50.707 20.332C50.7617 20.168 50.8118 20.0221 50.8574 19.8945C50.9759 19.5846 51.0807 19.2201 51.1719 18.8008C51.2721 18.3815 51.3633 17.9577 51.4453 17.5293C51.5273 17.1009 51.6003 16.6908 51.6641 16.2988C51.737 15.9069 51.8053 15.5788 51.8691 15.3145L53.5508 7.4668L54.0566 5.25195C54.1204 4.9694 54.1797 4.69596 54.2344 4.43164C54.2982 4.1582 54.3529 3.91211 54.3984 3.69336C54.444 3.47461 54.4805 3.29688 54.5078 3.16016C54.5352 3.02344 54.5488 2.94596 54.5488 2.92773L57.9668 1.875C58.0944 1.875 58.2038 1.88867 58.2949 1.91602C58.3952 1.93424 58.459 2.00716 58.4863 2.13477L61.207 10.8848L64.9395 3.02344L69.2051 1.875ZM93.3496 3.44727C93.3952 3.2832 93.4453 3.15104 93.5 3.05078C93.5547 2.94141 93.6777 2.86393 93.8691 2.81836L97.9023 1.88867C97.9206 1.88867 97.9434 1.88411 97.9707 1.875C97.998 1.86589 98.0208 1.86133 98.0391 1.86133C98.1667 1.86133 98.2533 1.91602 98.2988 2.02539C98.3535 2.13477 98.3809 2.23958 98.3809 2.33984C98.3809 2.35807 98.3763 2.39453 98.3672 2.44922C98.3672 2.50391 98.3626 2.54036 98.3535 2.55859L92.6934 19.7578C92.5475 20.1315 92.4245 20.4368 92.3242 20.6738C92.2331 20.9017 92.1374 21.0931 92.0371 21.248C91.946 21.3939 91.8366 21.5169 91.709 21.6172C91.5905 21.7174 91.4264 21.8177 91.2168 21.918C91.0163 22.0182 90.7611 22.1322 90.4512 22.2598C90.1413 22.3965 89.7493 22.5788 89.2754 22.8066C89.1113 22.8887 88.9837 22.9297 88.8926 22.9297C88.7467 22.9297 88.6374 22.875 88.5645 22.7656C88.4915 22.6562 88.4323 22.5332 88.3867 22.3965L86.0488 14.0703L83.123 20.0996C83.0775 20.209 82.9727 20.3548 82.8086 20.5371C82.6445 20.7194 82.4577 20.9062 82.248 21.0977C82.0475 21.2891 81.8424 21.4759 81.6328 21.6582C81.4323 21.8314 81.2682 21.9727 81.1406 22.082C81.0221 22.1823 80.8945 22.2826 80.7578 22.3828C80.6302 22.4831 80.498 22.5742 80.3613 22.6562C80.2246 22.7383 80.0924 22.8021 79.9648 22.8477C79.8464 22.9023 79.7324 22.9297 79.623 22.9297C79.3861 22.9297 79.2311 22.7975 79.1582 22.5332L73.8535 3.83008C73.8353 3.75716 73.8125 3.68424 73.7852 3.61133C73.7669 3.53841 73.7578 3.47005 73.7578 3.40625C73.7578 3.17839 73.8125 2.98698 73.9219 2.83203C74.0312 2.67708 74.2227 2.54492 74.4961 2.43555C74.7695 2.32617 75.1341 2.23958 75.5898 2.17578C76.0456 2.10286 76.6243 2.04362 77.3262 1.99805C77.6543 1.95247 77.9277 1.92057 78.1465 1.90234C78.3743 1.88411 78.5658 1.875 78.7207 1.875C78.985 1.875 79.1582 1.91602 79.2402 1.99805C79.3223 2.08008 79.3952 2.2168 79.459 2.4082L82.2754 13.25L84.6133 9.23047L83.6699 5.11523C83.6152 4.89648 83.5924 4.73242 83.6016 4.62305C83.6016 4.41341 83.6562 4.24479 83.7656 4.11719C83.875 3.98958 84.0573 3.88477 84.3125 3.80273C84.5677 3.7207 84.9004 3.64779 85.3105 3.58398C85.7298 3.52018 86.2402 3.44727 86.8418 3.36523C87.1061 3.32878 87.334 3.30143 87.5254 3.2832C87.7168 3.26497 87.8809 3.25586 88.0176 3.25586C88.291 3.25586 88.4779 3.29688 88.5781 3.37891C88.6784 3.46094 88.7513 3.5931 88.7969 3.77539L90.6562 12.1973L93.3496 3.44727ZM104.451 12.6758C104.451 13.332 104.52 13.9928 104.656 14.6582C104.802 15.3145 105.039 15.9069 105.367 16.4355C105.695 16.9642 106.128 17.3926 106.666 17.7207C107.204 18.0488 107.869 18.2129 108.662 18.2129C109.273 18.1764 109.806 18.0534 110.262 17.8438C110.727 17.625 111.123 17.347 111.451 17.0098C111.788 16.6634 112.066 16.2715 112.285 15.834C112.504 15.3874 112.677 14.9225 112.805 14.4395C112.932 13.9473 113.019 13.446 113.064 12.9355C113.119 12.4251 113.146 11.9329 113.146 11.459C113.146 10.8118 113.06 10.1875 112.887 9.58594C112.714 8.97526 112.454 8.4375 112.107 7.97266C111.761 7.50781 111.328 7.13411 110.809 6.85156C110.298 6.56901 109.701 6.42773 109.018 6.42773C108.48 6.42773 107.992 6.52799 107.555 6.72852C107.126 6.92904 106.743 7.19792 106.406 7.53516C106.069 7.86328 105.777 8.24609 105.531 8.68359C105.294 9.11198 105.094 9.55859 104.93 10.0234C104.775 10.4792 104.656 10.9395 104.574 11.4043C104.501 11.86 104.46 12.2839 104.451 12.6758ZM107.117 22.7109C105.75 22.7109 104.529 22.4557 103.453 21.9453C102.378 21.4349 101.466 20.7467 100.719 19.8809C99.9805 19.0059 99.4108 17.9987 99.0098 16.8594C98.6178 15.7109 98.4219 14.4987 98.4219 13.2227C98.4219 11.7917 98.6224 10.4746 99.0234 9.27148C99.4336 8.05924 100.003 6.98828 100.732 6.05859C101.462 5.11979 102.327 4.33138 103.33 3.69336C104.342 3.04622 105.449 2.56771 106.652 2.25781C106.762 2.25781 106.844 2.17122 106.898 1.99805C106.962 1.82487 107.017 1.63346 107.062 1.42383C107.108 1.21419 107.163 1.02279 107.227 0.849609C107.29 0.676432 107.382 0.589844 107.5 0.589844C109.268 0.772135 110.859 1.08659 112.271 1.5332C113.684 1.9707 114.883 2.59961 115.867 3.41992C116.852 4.24023 117.604 5.2793 118.123 6.53711C118.652 7.78581 118.916 9.3125 118.916 11.1172C118.916 12.2747 118.775 13.3639 118.492 14.3848C118.21 15.4056 117.813 16.349 117.303 17.2148C116.792 18.0716 116.177 18.8418 115.457 19.5254C114.746 20.1999 113.953 20.7741 113.078 21.248C112.203 21.722 111.26 22.082 110.248 22.3281C109.245 22.5833 108.202 22.7109 107.117 22.7109ZM127.543 20.9062C127.534 20.9883 127.516 21.0703 127.488 21.1523C127.47 21.2253 127.411 21.2845 127.311 21.3301C127.274 21.3483 127.092 21.4167 126.764 21.5352C126.445 21.6445 126.071 21.7767 125.643 21.9316C125.223 22.0775 124.804 22.2233 124.385 22.3691C123.975 22.5241 123.66 22.6426 123.441 22.7246C123.332 22.7702 123.195 22.8158 123.031 22.8613C122.876 22.916 122.721 22.9434 122.566 22.9434C122.439 22.9434 122.325 22.9115 122.225 22.8477C122.133 22.7839 122.088 22.6654 122.088 22.4922C122.088 22.0911 122.097 21.7266 122.115 21.3984C122.143 21.0612 122.174 20.7103 122.211 20.3457C122.247 19.9811 122.284 19.5801 122.32 19.1426C122.366 18.696 122.407 18.1673 122.443 17.5566C122.489 16.7546 122.539 15.9844 122.594 15.2461C122.648 14.4987 122.703 13.724 122.758 12.9219L122.949 10.584C122.977 10.2012 123.004 9.8138 123.031 9.42188C123.059 9.02083 123.086 8.61068 123.113 8.19141L123.264 6.52344C123.264 6.50521 123.236 6.49609 123.182 6.49609C123.109 6.49609 122.986 6.51432 122.812 6.55078C122.639 6.57812 122.434 6.61458 122.197 6.66016C121.96 6.70573 121.696 6.75586 121.404 6.81055C121.122 6.85612 120.83 6.90169 120.529 6.94727C120.456 6.94727 120.383 6.93359 120.311 6.90625C120.247 6.86979 120.215 6.82878 120.215 6.7832C120.215 6.74674 120.224 6.7194 120.242 6.70117L122.457 2.83203C122.958 2.72266 123.496 2.61328 124.07 2.50391C124.654 2.38542 125.278 2.2806 125.943 2.18945C126.609 2.09831 127.315 2.02539 128.062 1.9707C128.81 1.9069 129.603 1.875 130.441 1.875C131.389 1.89323 132.31 1.98893 133.203 2.16211C134.105 2.32617 134.903 2.60872 135.596 3.00977C136.298 3.40169 136.858 3.93945 137.277 4.62305C137.706 5.29753 137.92 6.1543 137.92 7.19336C137.92 7.76758 137.82 8.29622 137.619 8.7793C137.428 9.26237 137.177 9.69987 136.867 10.0918C136.566 10.4746 136.234 10.8164 135.869 11.1172C135.505 11.4089 135.154 11.6595 134.816 11.8691C134.488 12.0788 134.197 12.2474 133.941 12.375C133.686 12.4935 133.513 12.571 133.422 12.6074C133.422 12.6257 133.426 12.6484 133.436 12.6758C133.454 12.7031 133.486 12.7578 133.531 12.8398C133.577 12.9128 133.641 13.0221 133.723 13.168C133.814 13.3047 133.928 13.4961 134.064 13.7422C134.21 13.9609 134.383 14.2526 134.584 14.6172C134.785 14.9818 135.021 15.4147 135.295 15.916C135.577 16.4082 135.901 16.9596 136.266 17.5703C136.63 18.181 137.049 18.8372 137.523 19.5391C137.678 19.6758 137.856 19.7624 138.057 19.7988C138.257 19.8262 138.444 19.8444 138.617 19.8535C138.79 19.8535 138.936 19.8626 139.055 19.8809C139.173 19.89 139.232 19.9447 139.232 20.0449C139.232 20.1178 139.155 20.2044 139 20.3047C138.854 20.3958 138.681 20.4915 138.48 20.5918C138.28 20.6921 138.075 20.7878 137.865 20.8789C137.665 20.9701 137.51 21.043 137.4 21.0977C137.182 21.207 136.954 21.3118 136.717 21.4121C136.48 21.5124 136.225 21.6263 135.951 21.7539C135.678 21.8724 135.372 22.0137 135.035 22.1777C134.707 22.3418 134.333 22.5378 133.914 22.7656C133.805 22.8294 133.7 22.8704 133.6 22.8887C133.508 22.916 133.422 22.9297 133.34 22.9297C133.176 22.9297 133.035 22.8887 132.916 22.8066C132.798 22.7337 132.697 22.6426 132.615 22.5332C132.533 22.4238 132.465 22.3099 132.41 22.1914C132.365 22.082 132.324 21.9909 132.287 21.918L128.213 13.332L127.543 20.9062ZM128.377 11.6504C128.842 11.6504 129.325 11.5319 129.826 11.2949C130.327 11.0579 130.783 10.7526 131.193 10.3789C131.604 10.0052 131.941 9.58138 132.205 9.10742C132.469 8.63346 132.602 8.15495 132.602 7.67188C132.602 6.35026 131.809 5.68945 130.223 5.68945C129.922 5.68945 129.671 5.71224 129.471 5.75781C129.27 5.79427 129.088 5.82161 128.924 5.83984L128.377 11.6504ZM147.723 2.43555C147.704 2.57227 147.686 2.79102 147.668 3.0918C147.65 3.38346 147.622 3.7207 147.586 4.10352C147.559 4.48633 147.531 4.89648 147.504 5.33398C147.477 5.76237 147.445 6.18164 147.408 6.5918C147.381 6.99284 147.349 7.36198 147.312 7.69922C147.285 8.03646 147.262 8.30534 147.244 8.50586L147.941 7.79492L149.883 5.38867C150.12 5.08789 150.357 4.79622 150.594 4.51367C150.831 4.22201 151.04 3.96224 151.223 3.73438C151.414 3.4974 151.569 3.30143 151.688 3.14648C151.806 2.99154 151.874 2.90495 151.893 2.88672L157.963 2.38086C157.981 2.37174 158.022 2.36719 158.086 2.36719H158.195C158.405 2.36719 158.51 2.42188 158.51 2.53125C158.51 2.59505 158.478 2.67253 158.414 2.76367C158.359 2.8457 158.273 2.95508 158.154 3.0918C158.008 3.26497 157.794 3.51562 157.512 3.84375C157.238 4.16276 156.938 4.51823 156.609 4.91016C156.281 5.29297 155.939 5.69401 155.584 6.11328C155.238 6.52344 154.914 6.90625 154.613 7.26172C154.312 7.60807 154.053 7.90885 153.834 8.16406C153.624 8.41927 153.492 8.58333 153.438 8.65625L152.576 9.47656C151.993 10.0326 151.245 10.7253 150.334 11.5547C150.617 11.8464 150.917 12.1654 151.236 12.5117C151.564 12.849 151.874 13.1771 152.166 13.4961C152.467 13.806 152.736 14.0885 152.973 14.3438C153.219 14.599 153.401 14.7904 153.52 14.918L157.744 19.8125C157.79 19.8672 157.849 19.9128 157.922 19.9492C157.995 19.9857 158.068 20.0176 158.141 20.0449C158.214 20.0723 158.273 20.1042 158.318 20.1406C158.373 20.168 158.4 20.2044 158.4 20.25C158.4 20.3047 158.341 20.3913 158.223 20.5098C158.15 20.5827 158.013 20.6921 157.812 20.8379C157.612 20.9746 157.375 21.125 157.102 21.2891C156.837 21.4531 156.55 21.6217 156.24 21.7949C155.93 21.9681 155.63 22.123 155.338 22.2598C155.055 22.4056 154.791 22.5241 154.545 22.6152C154.308 22.7064 154.126 22.752 153.998 22.752C153.807 22.752 153.606 22.6654 153.396 22.4922C153.187 22.3281 152.936 22.0775 152.645 21.7402C152.353 21.3939 152.007 20.9564 151.605 20.4277C151.204 19.8991 150.721 19.2793 150.156 18.5684C149.828 18.1582 149.509 17.7572 149.199 17.3652C148.889 16.9642 148.598 16.5905 148.324 16.2441C148.051 15.8887 147.8 15.5742 147.572 15.3008C147.354 15.0182 147.171 14.7904 147.025 14.6172C146.952 14.6901 146.875 14.763 146.793 14.8359C146.711 14.8997 146.633 14.9681 146.561 15.041L146.082 20.9062C146.073 20.9883 146.055 21.0703 146.027 21.1523C146.009 21.2344 145.95 21.2936 145.85 21.3301L141.98 22.7246C141.88 22.7611 141.748 22.8066 141.584 22.8613C141.42 22.916 141.26 22.9434 141.105 22.9434C140.969 22.9434 140.855 22.9069 140.764 22.834C140.673 22.7611 140.627 22.6289 140.627 22.4375C140.673 21.8997 140.727 21.2025 140.791 20.3457C140.864 19.4889 140.937 18.5137 141.01 17.4199C141.092 16.3171 141.174 15.1185 141.256 13.8242C141.347 12.5208 141.443 11.1536 141.543 9.72266L141.926 3.9668C141.935 3.80273 141.944 3.66602 141.953 3.55664C141.962 3.44727 141.976 3.35612 141.994 3.2832C142.012 3.21029 142.044 3.1556 142.09 3.11914C142.135 3.08268 142.204 3.05534 142.295 3.03711L147.025 1.90234C147.144 1.86589 147.267 1.84766 147.395 1.84766C147.522 1.84766 147.609 1.88867 147.654 1.9707C147.7 2.04362 147.723 2.19857 147.723 2.43555Z" fill="black"/>
</svg>
