<?xml version="1.0" standalone="no"?><!DOCTYPE svg PUBLIC "-//W3C//DTD SVG 1.1//EN" "http://www.w3.org/Graphics/SVG/1.1/DTD/svg11.dtd"><svg t="1580913526655" class="icon" viewBox="0 0 1024 1024" version="1.1" xmlns="http://www.w3.org/2000/svg" p-id="3039" xmlns:xlink="http://www.w3.org/1999/xlink" width="100" height="100"><defs><style type="text/css"></style></defs><path d="M956.509091 311.854545l-197.818182-197.818181C714.472727 69.818182 656.290909 46.545455 593.454545 46.545455H186.181818c-102.4 0-186.181818 83.781818-186.181818 186.181818v558.545454c0 102.4 83.781818 186.181818 186.181818 186.181818h651.636364c102.4 0 186.181818-83.781818 186.181818-186.181818V477.090909c0-62.836364-23.272727-121.018182-67.490909-165.236364zM930.909091 791.272727c0 51.2-41.890909 93.090909-93.090909 93.090909H186.181818c-51.2 0-93.090909-41.890909-93.090909-93.090909V232.727273c0-51.2 41.890909-93.090909 93.090909-93.090909h407.272727c37.236364 0 72.145455 13.963636 97.745455 41.890909l197.818182 197.818182c25.6 25.6 41.890909 62.836364 41.890909 97.745454V791.272727z" fill="#0277f9" p-id="3040"></path><path d="M279.272727 477.090909h209.454546c25.6 0 46.545455-20.945455 46.545454-46.545454s-20.945455-46.545455-46.545454-46.545455h-209.454546c-25.6 0-46.545455 20.945455-46.545454 46.545455s20.945455 46.545455 46.545454 46.545454zM651.636364 593.454545H279.272727c-25.6 0-46.545455 20.945455-46.545454 46.545455s20.945455 46.545455 46.545454 46.545455h372.363637c25.6 0 46.545455-20.945455 46.545454-46.545455s-20.945455-46.545455-46.545454-46.545455z" fill="#0277f9" p-id="3041"></path></svg>