<?xml version="1.0" standalone="no"?><!DOCTYPE svg PUBLIC "-//W3C//DTD SVG 1.1//EN" "http://www.w3.org/Graphics/SVG/1.1/DTD/svg11.dtd"><svg t="1580587560540" class="icon" viewBox="0 0 1024 1024" version="1.1" xmlns="http://www.w3.org/2000/svg" p-id="2116" xmlns:xlink="http://www.w3.org/1999/xlink" width="100" height="100"><defs><style type="text/css"></style></defs><path d="M512 85.333333C276.48 85.333333 85.333333 276.48 85.333333 512S276.48 938.666667 512 938.666667 938.666667 747.52 938.666667 512 747.52 85.333333 512 85.333333z m136.533333 531.342223c11.377778 11.377778 11.377778 29.582222 0 39.822222-5.688889 5.688889-12.515556 7.964444-20.48 7.964444s-14.791111-2.275556-20.48-7.964444L512 559.786667l-96.711111 96.711111c-5.688889 5.688889-12.515556 7.964444-20.48 7.964444s-14.791111-2.275556-20.48-7.964444c-11.377778-11.377778-11.377778-29.582222 0-39.822222l96.711111-96.711112-104.675556-104.675555c-11.377778-11.377778-11.377778-29.582222 0-39.822222 11.377778-11.377778 29.582222-11.377778 39.822223 0l104.675555 104.675555 104.675556-104.675555c11.377778-11.377778 29.582222-11.377778 39.822222 0 11.377778 11.377778 11.377778 29.582222 0 39.822222l-104.675556 104.675555 97.848889 96.711112z" p-id="2117" fill="#ffffff"></path></svg>